999
"DXF R12 Output" (www.mydxf.blogspot.com)
 0 
SECTION
 2 
HEADER
 9 
$ACADVER
 1 
AC1009
 9 
$EXTMIN
 10 
 0 
 20 
 0 
 9 
$EXTMAX
 10 
 8.5 
 20 
 11 
 0 
ENDSEC
 0 
SECTION
 2 
ENTITIES
0
LINE
8
Layer 1
10
25.576420
20
41.476364
11
23.199776
21
41.298303
0
LINE
8
Layer 1
10
23.199776
20
41.298303
11
20.914180
21
40.778231
0
LINE
8
Layer 1
10
20.914180
20
40.778231
11
18.751312
21
39.937317
0
LINE
8
Layer 1
10
18.751312
20
39.937317
11
16.742853
21
38.796731
0
LINE
8
Layer 1
10
16.742853
20
38.796731
11
14.920484
21
37.377640
0
LINE
8
Layer 1
10
14.920484
20
37.377640
11
13.315888
21
35.701214
0
LINE
8
Layer 1
10
13.315888
20
35.701214
11
11.960744
21
33.788621
0
LINE
8
Layer 1
10
11.960744
20
33.788621
11
10.886735
21
31.661031
0
LINE
8
Layer 1
10
10.886735
20
31.661031
11
10.141740
21
29.397157
0
LINE
8
Layer 1
10
10.141740
20
29.397157
11
9.747564
21
27.086519
0
LINE
8
Layer 1
10
9.747564
20
27.086519
11
9.696773
21
24.766486
0
LINE
8
Layer 1
10
9.696773
20
24.766486
11
9.981934
21
22.474428
0
LINE
8
Layer 1
10
9.981934
20
22.474428
11
10.595612
21
20.247717
0
LINE
8
Layer 1
10
10.595612
20
20.247717
11
11.530375
21
18.123722
0
LINE
8
Layer 1
10
11.530375
20
18.123722
11
12.778790
21
16.139815
0
LINE
8
Layer 1
10
12.778790
20
16.139815
11
14.333422
21
14.333366
0
LINE
8
Layer 1
10
14.333422
20
14.333366
11
16.139871
21
12.778734
0
LINE
8
Layer 1
10
16.139871
20
12.778734
11
18.123778
21
11.530320
0
LINE
8
Layer 1
10
18.123778
20
11.530320
11
20.247772
21
10.595557
0
LINE
8
Layer 1
10
20.247772
20
10.595557
11
22.474483
21
9.981878
0
LINE
8
Layer 1
10
22.474483
20
9.981878
11
24.766541
21
9.696718
0
LINE
8
Layer 1
10
24.766541
20
9.696718
11
27.086574
21
9.747509
0
LINE
8
Layer 1
10
27.086574
20
9.747509
11
29.397213
21
10.141685
0
LINE
8
Layer 1
10
29.397213
20
10.141685
11
31.661086
21
10.886679
0
LINE
8
Layer 1
10
31.661086
20
10.886679
11
33.788677
21
11.960689
0
LINE
8
Layer 1
10
33.788677
20
11.960689
11
35.701270
21
13.315832
0
LINE
8
Layer 1
10
35.701270
20
13.315832
11
37.377696
21
14.920429
0
LINE
8
Layer 1
10
37.377696
20
14.920429
11
38.796786
21
16.742797
0
LINE
8
Layer 1
10
38.796786
20
16.742797
11
39.937373
21
18.751256
0
LINE
8
Layer 1
10
39.937373
20
18.751256
11
40.778286
21
20.914125
0
LINE
8
Layer 1
10
40.778286
20
20.914125
11
41.298358
21
23.199721
0
LINE
8
Layer 1
10
41.298358
20
23.199721
11
41.476420
21
25.576364
0
LINE
8
Layer 1
10
41.476420
20
25.576364
11
41.394330
21
27.202047
0
LINE
8
Layer 1
10
41.394330
20
27.202047
11
41.153388
21
28.780769
0
LINE
8
Layer 1
10
41.153388
20
28.780769
11
40.761587
21
30.304538
0
LINE
8
Layer 1
10
40.761587
20
30.304538
11
40.226919
21
31.765362
0
LINE
8
Layer 1
10
40.226919
20
31.765362
11
39.557375
21
33.155248
0
LINE
8
Layer 1
10
39.557375
20
33.155248
11
38.760949
21
34.466205
0
LINE
8
Layer 1
10
38.760949
20
34.466205
11
36.819417
21
36.819362
0
LINE
8
Layer 1
10
36.819417
20
36.819362
11
34.466261
21
38.760894
0
LINE
8
Layer 1
10
34.466261
20
38.760894
11
33.155304
21
39.557320
0
LINE
8
Layer 1
10
33.155304
20
39.557320
11
31.765417
21
40.226863
0
LINE
8
Layer 1
10
31.765417
20
40.226863
11
30.304593
21
40.761531
0
LINE
8
Layer 1
10
30.304593
20
40.761531
11
28.780824
21
41.153333
0
LINE
8
Layer 1
10
28.780824
20
41.153333
11
27.202102
21
41.394274
0
LINE
8
Layer 1
10
27.202102
20
41.394274
11
25.576420
21
41.476364
0
LINE
8
Layer 1
10
25.576420
20
41.476364
11
25.576420
21
41.476364
0
LINE
8
Layer 1
10
25.576404
20
50.976362
11
21.779754
21
50.691912
0
LINE
8
Layer 1
10
21.779754
20
50.691912
11
18.128550
21
49.861105
0
LINE
8
Layer 1
10
18.128550
20
49.861105
11
14.673402
21
48.517759
0
LINE
8
Layer 1
10
14.673402
20
48.517759
11
11.464920
21
46.695690
0
LINE
8
Layer 1
10
11.464920
20
46.695690
11
8.553715
21
44.428715
0
LINE
8
Layer 1
10
8.553715
20
44.428715
11
5.990398
21
41.750651
0
LINE
8
Layer 1
10
5.990398
20
41.750651
11
3.825577
21
38.695314
0
LINE
8
Layer 1
10
3.825577
20
38.695314
11
2.109864
21
35.296521
0
LINE
8
Layer 1
10
2.109864
20
35.296521
11
0.919747
21
31.680019
0
LINE
8
Layer 1
10
0.919747
20
31.680019
11
0.290057
21
27.988811
0
LINE
8
Layer 1
10
0.290057
20
27.988811
11
0.208919
21
24.282594
0
LINE
8
Layer 1
10
0.208919
20
24.282594
11
0.664458
21
20.621068
0
LINE
8
Layer 1
10
0.664458
20
20.621068
11
1.644800
21
17.063931
0
LINE
8
Layer 1
10
1.644800
20
17.063931
11
3.138070
21
13.670884
0
LINE
8
Layer 1
10
3.138070
20
13.670884
11
5.132392
21
10.501624
0
LINE
8
Layer 1
10
5.132392
20
10.501624
11
7.615892
21
7.615850
0
LINE
8
Layer 1
10
7.615892
20
7.615850
11
10.501666
21
5.132350
0
LINE
8
Layer 1
10
10.501666
20
5.132350
11
13.670926
21
3.138027
0
LINE
8
Layer 1
10
13.670926
20
3.138027
11
17.063974
21
1.644758
0
LINE
8
Layer 1
10
17.063974
20
1.644758
11
20.621110
21
0.664416
0
LINE
8
Layer 1
10
20.621110
20
0.664416
11
24.282636
21
0.208877
0
LINE
8
Layer 1
10
24.282636
20
0.208877
11
27.988853
21
0.290014
0
LINE
8
Layer 1
10
27.988853
20
0.290014
11
31.680062
21
0.919705
0
LINE
8
Layer 1
10
31.680062
20
0.919705
11
35.296563
21
2.109822
0
LINE
8
Layer 1
10
35.296563
20
2.109822
11
38.695356
21
3.825535
0
LINE
8
Layer 1
10
38.695356
20
3.825535
11
41.750693
21
5.990355
0
LINE
8
Layer 1
10
41.750693
20
5.990355
11
44.428758
21
8.553673
0
LINE
8
Layer 1
10
44.428758
20
8.553673
11
46.695732
21
11.464878
0
LINE
8
Layer 1
10
46.695732
20
11.464878
11
48.517801
21
14.673360
0
LINE
8
Layer 1
10
48.517801
20
14.673360
11
49.861147
21
18.128508
0
LINE
8
Layer 1
10
49.861147
20
18.128508
11
50.691954
21
21.779712
0
LINE
8
Layer 1
10
50.691954
20
21.779712
11
50.976404
21
25.576362
0
LINE
8
Layer 1
10
50.976404
20
25.576362
11
50.852114
21
28.086840
0
LINE
8
Layer 1
10
50.852114
20
28.086840
11
50.483841
21
30.554796
0
LINE
8
Layer 1
10
50.483841
20
30.554796
11
49.878485
21
32.963575
0
LINE
8
Layer 1
10
49.878485
20
32.963575
11
49.042944
21
35.296521
0
LINE
8
Layer 1
10
49.042944
20
35.296521
11
47.984119
21
37.536980
0
LINE
8
Layer 1
10
47.984119
20
37.536980
11
46.708906
21
39.668295
0
LINE
8
Layer 1
10
46.708906
20
39.668295
11
45.224206
21
41.673812
0
LINE
8
Layer 1
10
45.224206
20
41.673812
11
43.536917
21
43.536874
0
LINE
8
Layer 1
10
43.536917
20
43.536874
11
41.673854
21
45.224163
0
LINE
8
Layer 1
10
41.673854
20
45.224163
11
39.668337
21
46.708864
0
LINE
8
Layer 1
10
39.668337
20
46.708864
11
37.537022
21
47.984076
0
LINE
8
Layer 1
10
37.537022
20
47.984076
11
35.296563
21
49.042902
0
LINE
8
Layer 1
10
35.296563
20
49.042902
11
32.963617
21
49.878443
0
LINE
8
Layer 1
10
32.963617
20
49.878443
11
30.554838
21
50.483799
0
LINE
8
Layer 1
10
30.554838
20
50.483799
11
28.086882
21
50.852071
0
LINE
8
Layer 1
10
28.086882
20
50.852071
11
25.576404
21
50.976362
0
LINE
8
Layer 1
10
25.576404
20
50.976362
11
25.576404
21
50.976362
0
LINE
8
Layer 1
10
79.085220
20
41.669964
11
76.708576
21
41.491903
0
LINE
8
Layer 1
10
76.708576
20
41.491903
11
74.422980
21
40.971831
0
LINE
8
Layer 1
10
74.422980
20
40.971831
11
72.260112
21
40.130917
0
LINE
8
Layer 1
10
72.260112
20
40.130917
11
70.251653
21
38.990331
0
LINE
8
Layer 1
10
70.251653
20
38.990331
11
68.429284
21
37.571240
0
LINE
8
Layer 1
10
68.429284
20
37.571240
11
66.824688
21
35.894814
0
LINE
8
Layer 1
10
66.824688
20
35.894814
11
65.469544
21
33.982221
0
LINE
8
Layer 1
10
65.469544
20
33.982221
11
64.395535
21
31.854631
0
LINE
8
Layer 1
10
64.395535
20
31.854631
11
63.650540
21
29.590757
0
LINE
8
Layer 1
10
63.650540
20
29.590757
11
63.256364
21
27.280119
0
LINE
8
Layer 1
10
63.256364
20
27.280119
11
63.205573
21
24.960086
0
LINE
8
Layer 1
10
63.205573
20
24.960086
11
63.490734
21
22.668028
0
LINE
8
Layer 1
10
63.490734
20
22.668028
11
64.104412
21
20.441317
0
LINE
8
Layer 1
10
64.104412
20
20.441317
11
65.039175
21
18.317322
0
LINE
8
Layer 1
10
65.039175
20
18.317322
11
66.287590
21
16.333415
0
LINE
8
Layer 1
10
66.287590
20
16.333415
11
67.842222
21
14.526966
0
LINE
8
Layer 1
10
67.842222
20
14.526966
11
69.648671
21
12.972334
0
LINE
8
Layer 1
10
69.648671
20
12.972334
11
71.632578
21
11.723920
0
LINE
8
Layer 1
10
71.632578
20
11.723920
11
73.756572
21
10.789157
0
LINE
8
Layer 1
10
73.756572
20
10.789157
11
75.983283
21
10.175478
0
LINE
8
Layer 1
10
75.983283
20
10.175478
11
78.275341
21
9.890318
0
LINE
8
Layer 1
10
78.275341
20
9.890318
11
80.595374
21
9.941109
0
LINE
8
Layer 1
10
80.595374
20
9.941109
11
82.906013
21
10.335285
0
LINE
8
Layer 1
10
82.906013
20
10.335285
11
85.169886
21
11.080279
0
LINE
8
Layer 1
10
85.169886
20
11.080279
11
87.297477
21
12.154289
0
LINE
8
Layer 1
10
87.297477
20
12.154289
11
89.210070
21
13.509432
0
LINE
8
Layer 1
10
89.210070
20
13.509432
11
90.886496
21
15.114029
0
LINE
8
Layer 1
10
90.886496
20
15.114029
11
92.305586
21
16.936397
0
LINE
8
Layer 1
10
92.305586
20
16.936397
11
93.446173
21
18.944856
0
LINE
8
Layer 1
10
93.446173
20
18.944856
11
94.287086
21
21.107725
0
LINE
8
Layer 1
10
94.287086
20
21.107725
11
94.807158
21
23.393321
0
LINE
8
Layer 1
10
94.807158
20
23.393321
11
94.985220
21
25.769964
0
LINE
8
Layer 1
10
94.985220
20
25.769964
11
94.903130
21
27.395647
0
LINE
8
Layer 1
10
94.903130
20
27.395647
11
94.662188
21
28.974369
0
LINE
8
Layer 1
10
94.662188
20
28.974369
11
94.270387
21
30.498138
0
LINE
8
Layer 1
10
94.270387
20
30.498138
11
93.735719
21
31.958962
0
LINE
8
Layer 1
10
93.735719
20
31.958962
11
93.066175
21
33.348848
0
LINE
8
Layer 1
10
93.066175
20
33.348848
11
92.269749
21
34.659805
0
LINE
8
Layer 1
10
92.269749
20
34.659805
11
90.328217
21
37.012962
0
LINE
8
Layer 1
10
90.328217
20
37.012962
11
87.975061
21
38.954494
0
LINE
8
Layer 1
10
87.975061
20
38.954494
11
86.664104
21
39.750920
0
LINE
8
Layer 1
10
86.664104
20
39.750920
11
85.274217
21
40.420463
0
LINE
8
Layer 1
10
85.274217
20
40.420463
11
83.813393
21
40.955131
0
LINE
8
Layer 1
10
83.813393
20
40.955131
11
82.289624
21
41.346933
0
LINE
8
Layer 1
10
82.289624
20
41.346933
11
80.710902
21
41.587874
0
LINE
8
Layer 1
10
80.710902
20
41.587874
11
79.085220
21
41.669964
0
LINE
8
Layer 1
10
79.085220
20
41.669964
11
79.085220
21
41.669964
0
LINE
8
Layer 1
10
79.085304
20
51.169962
11
75.288654
21
50.885512
0
LINE
8
Layer 1
10
75.288654
20
50.885512
11
71.637450
21
50.054705
0
LINE
8
Layer 1
10
71.637450
20
50.054705
11
68.182302
21
48.711359
0
LINE
8
Layer 1
10
68.182302
20
48.711359
11
64.973820
21
46.889290
0
LINE
8
Layer 1
10
64.973820
20
46.889290
11
62.062615
21
44.622315
0
LINE
8
Layer 1
10
62.062615
20
44.622315
11
59.499298
21
41.944251
0
LINE
8
Layer 1
10
59.499298
20
41.944251
11
57.334477
21
38.888914
0
LINE
8
Layer 1
10
57.334477
20
38.888914
11
55.618764
21
35.490121
0
LINE
8
Layer 1
10
55.618764
20
35.490121
11
54.428647
21
31.873619
0
LINE
8
Layer 1
10
54.428647
20
31.873619
11
53.798957
21
28.182411
0
LINE
8
Layer 1
10
53.798957
20
28.182411
11
53.717819
21
24.476194
0
LINE
8
Layer 1
10
53.717819
20
24.476194
11
54.173358
21
20.814668
0
LINE
8
Layer 1
10
54.173358
20
20.814668
11
55.153700
21
17.257531
0
LINE
8
Layer 1
10
55.153700
20
17.257531
11
56.646970
21
13.864484
0
LINE
8
Layer 1
10
56.646970
20
13.864484
11
58.641292
21
10.695224
0
LINE
8
Layer 1
10
58.641292
20
10.695224
11
61.124792
21
7.809450
0
LINE
8
Layer 1
10
61.124792
20
7.809450
11
64.010566
21
5.325950
0
LINE
8
Layer 1
10
64.010566
20
5.325950
11
67.179826
21
3.331627
0
LINE
8
Layer 1
10
67.179826
20
3.331627
11
70.572874
21
1.838358
0
LINE
8
Layer 1
10
70.572874
20
1.838358
11
74.130010
21
0.858016
0
LINE
8
Layer 1
10
74.130010
20
0.858016
11
77.791536
21
0.402477
0
LINE
8
Layer 1
10
77.791536
20
0.402477
11
81.497753
21
0.483614
0
LINE
8
Layer 1
10
81.497753
20
0.483614
11
85.188962
21
1.113305
0
LINE
8
Layer 1
10
85.188962
20
1.113305
11
88.805463
21
2.303422
0
LINE
8
Layer 1
10
88.805463
20
2.303422
11
92.204256
21
4.019135
0
LINE
8
Layer 1
10
92.204256
20
4.019135
11
95.259593
21
6.183955
0
LINE
8
Layer 1
10
95.259593
20
6.183955
11
97.937658
21
8.747273
0
LINE
8
Layer 1
10
97.937658
20
8.747273
11
100.204632
21
11.658478
0
LINE
8
Layer 1
10
100.204632
20
11.658478
11
102.026701
21
14.866960
0
LINE
8
Layer 1
10
102.026701
20
14.866960
11
103.370047
21
18.322108
0
LINE
8
Layer 1
10
103.370047
20
18.322108
11
104.200854
21
21.973312
0
LINE
8
Layer 1
10
104.200854
20
21.973312
11
104.485304
21
25.769962
0
LINE
8
Layer 1
10
104.485304
20
25.769962
11
104.361014
21
28.280440
0
LINE
8
Layer 1
10
104.361014
20
28.280440
11
103.992741
21
30.748396
0
LINE
8
Layer 1
10
103.992741
20
30.748396
11
103.387385
21
33.157175
0
LINE
8
Layer 1
10
103.387385
20
33.157175
11
102.551844
21
35.490121
0
LINE
8
Layer 1
10
102.551844
20
35.490121
11
101.493019
21
37.730580
0
LINE
8
Layer 1
10
101.493019
20
37.730580
11
100.217806
21
39.861895
0
LINE
8
Layer 1
10
100.217806
20
39.861895
11
98.733106
21
41.867412
0
LINE
8
Layer 1
10
98.733106
20
41.867412
11
97.045817
21
43.730474
0
LINE
8
Layer 1
10
97.045817
20
43.730474
11
95.182754
21
45.417763
0
LINE
8
Layer 1
10
95.182754
20
45.417763
11
93.177237
21
46.902464
0
LINE
8
Layer 1
10
93.177237
20
46.902464
11
91.045922
21
48.177676
0
LINE
8
Layer 1
10
91.045922
20
48.177676
11
88.805463
21
49.236502
0
LINE
8
Layer 1
10
88.805463
20
49.236502
11
86.472517
21
50.072043
0
LINE
8
Layer 1
10
86.472517
20
50.072043
11
84.063738
21
50.677399
0
LINE
8
Layer 1
10
84.063738
20
50.677399
11
81.595782
21
51.045671
0
LINE
8
Layer 1
10
81.595782
20
51.045671
11
79.085304
21
51.169962
0
LINE
8
Layer 1
10
79.085304
20
51.169962
11
79.085304
21
51.169962
0
LINE
8
Layer 1
10
132.593820
20
42.089964
11
130.968137
21
42.007874
0
LINE
8
Layer 1
10
130.968137
20
42.007874
11
129.389415
21
41.766933
0
LINE
8
Layer 1
10
129.389415
20
41.766933
11
127.865646
21
41.375131
0
LINE
8
Layer 1
10
127.865646
20
41.375131
11
126.404822
21
40.840463
0
LINE
8
Layer 1
10
126.404822
20
40.840463
11
125.014935
21
40.170920
0
LINE
8
Layer 1
10
125.014935
20
40.170920
11
123.703978
21
39.374494
0
LINE
8
Layer 1
10
123.703978
20
39.374494
11
121.350822
21
37.432962
0
LINE
8
Layer 1
10
121.350822
20
37.432962
11
119.409290
21
35.079805
0
LINE
8
Layer 1
10
119.409290
20
35.079805
11
118.612864
21
33.768848
0
LINE
8
Layer 1
10
118.612864
20
33.768848
11
117.943320
21
32.378962
0
LINE
8
Layer 1
10
117.943320
20
32.378962
11
117.408652
21
30.918138
0
LINE
8
Layer 1
10
117.408652
20
30.918138
11
117.016851
21
29.394369
0
LINE
8
Layer 1
10
117.016851
20
29.394369
11
116.775909
21
27.815647
0
LINE
8
Layer 1
10
116.775909
20
27.815647
11
116.693820
21
26.189964
0
LINE
8
Layer 1
10
116.693820
20
26.189964
11
116.775909
21
24.564281
0
LINE
8
Layer 1
10
116.775909
20
24.564281
11
117.016851
21
22.985559
0
LINE
8
Layer 1
10
117.016851
20
22.985559
11
117.408652
21
21.461790
0
LINE
8
Layer 1
10
117.408652
20
21.461790
11
117.943320
21
20.000966
0
LINE
8
Layer 1
10
117.943320
20
20.000966
11
118.612864
21
18.611080
0
LINE
8
Layer 1
10
118.612864
20
18.611080
11
119.409290
21
17.300123
0
LINE
8
Layer 1
10
119.409290
20
17.300123
11
121.350822
21
14.946966
0
LINE
8
Layer 1
10
121.350822
20
14.946966
11
123.703978
21
13.005434
0
LINE
8
Layer 1
10
123.703978
20
13.005434
11
125.014935
21
12.209008
0
LINE
8
Layer 1
10
125.014935
20
12.209008
11
126.404822
21
11.539465
0
LINE
8
Layer 1
10
126.404822
20
11.539465
11
127.865646
21
11.004797
0
LINE
8
Layer 1
10
127.865646
20
11.004797
11
129.389415
21
10.612995
0
LINE
8
Layer 1
10
129.389415
20
10.612995
11
130.968137
21
10.372054
0
LINE
8
Layer 1
10
130.968137
20
10.372054
11
132.593820
21
10.289964
0
LINE
8
Layer 1
10
132.593820
20
10.289964
11
134.219502
21
10.372054
0
LINE
8
Layer 1
10
134.219502
20
10.372054
11
135.798224
21
10.612995
0
LINE
8
Layer 1
10
135.798224
20
10.612995
11
137.321993
21
11.004797
0
LINE
8
Layer 1
10
137.321993
20
11.004797
11
138.782817
21
11.539465
0
LINE
8
Layer 1
10
138.782817
20
11.539465
11
140.172704
21
12.209008
0
LINE
8
Layer 1
10
140.172704
20
12.209008
11
141.483661
21
13.005434
0
LINE
8
Layer 1
10
141.483661
20
13.005434
11
143.836817
21
14.946966
0
LINE
8
Layer 1
10
143.836817
20
14.946966
11
145.778349
21
17.300123
0
LINE
8
Layer 1
10
145.778349
20
17.300123
11
146.574775
21
18.611080
0
LINE
8
Layer 1
10
146.574775
20
18.611080
11
147.244319
21
20.000966
0
LINE
8
Layer 1
10
147.244319
20
20.000966
11
147.778987
21
21.461790
0
LINE
8
Layer 1
10
147.778987
20
21.461790
11
148.170788
21
22.985559
0
LINE
8
Layer 1
10
148.170788
20
22.985559
11
148.411730
21
24.564281
0
LINE
8
Layer 1
10
148.411730
20
24.564281
11
148.493820
21
26.189964
0
LINE
8
Layer 1
10
148.493820
20
26.189964
11
148.416016
21
27.761484
0
LINE
8
Layer 1
10
148.416016
20
27.761484
11
148.185483
21
29.306385
0
LINE
8
Layer 1
10
148.185483
20
29.306385
11
147.806539
21
30.814243
0
LINE
8
Layer 1
10
147.806539
20
30.814243
11
147.283504
21
32.274631
0
LINE
8
Layer 1
10
147.283504
20
32.274631
11
146.620696
21
33.677122
0
LINE
8
Layer 1
10
146.620696
20
33.677122
11
145.822433
21
35.011292
0
LINE
8
Layer 1
10
145.822433
20
35.011292
11
144.893034
21
36.266714
0
LINE
8
Layer 1
10
144.893034
20
36.266714
11
143.836817
21
37.432962
0
LINE
8
Layer 1
10
143.836817
20
37.432962
11
142.670569
21
38.489178
0
LINE
8
Layer 1
10
142.670569
20
38.489178
11
141.415148
21
39.418577
0
LINE
8
Layer 1
10
141.415148
20
39.418577
11
140.080978
21
40.216840
0
LINE
8
Layer 1
10
140.080978
20
40.216840
11
138.678486
21
40.879649
0
LINE
8
Layer 1
10
138.678486
20
40.879649
11
137.218098
21
41.402684
0
LINE
8
Layer 1
10
137.218098
20
41.402684
11
135.710241
21
41.781627
0
LINE
8
Layer 1
10
135.710241
20
41.781627
11
134.165339
21
42.012160
0
LINE
8
Layer 1
10
134.165339
20
42.012160
11
132.593820
21
42.089964
0
LINE
8
Layer 1
10
132.593820
20
42.089964
11
132.593820
21
42.089964
0
LINE
8
Layer 1
10
132.593804
20
51.589962
11
128.797154
21
51.305512
0
LINE
8
Layer 1
10
128.797154
20
51.305512
11
125.145950
21
50.474705
0
LINE
8
Layer 1
10
125.145950
20
50.474705
11
121.690802
21
49.131359
0
LINE
8
Layer 1
10
121.690802
20
49.131359
11
118.482320
21
47.309290
0
LINE
8
Layer 1
10
118.482320
20
47.309290
11
115.571115
21
45.042315
0
LINE
8
Layer 1
10
115.571115
20
45.042315
11
113.007798
21
42.364251
0
LINE
8
Layer 1
10
113.007798
20
42.364251
11
110.842977
21
39.308914
0
LINE
8
Layer 1
10
110.842977
20
39.308914
11
109.127264
21
35.910121
0
LINE
8
Layer 1
10
109.127264
20
35.910121
11
107.937147
21
32.293619
0
LINE
8
Layer 1
10
107.937147
20
32.293619
11
107.307457
21
28.602411
0
LINE
8
Layer 1
10
107.307457
20
28.602411
11
107.226319
21
24.896194
0
LINE
8
Layer 1
10
107.226319
20
24.896194
11
107.681858
21
21.234668
0
LINE
8
Layer 1
10
107.681858
20
21.234668
11
108.662200
21
17.677531
0
LINE
8
Layer 1
10
108.662200
20
17.677531
11
110.155470
21
14.284484
0
LINE
8
Layer 1
10
110.155470
20
14.284484
11
112.149792
21
11.115224
0
LINE
8
Layer 1
10
112.149792
20
11.115224
11
114.633292
21
8.229450
0
LINE
8
Layer 1
10
114.633292
20
8.229450
11
117.519066
21
5.745950
0
LINE
8
Layer 1
10
117.519066
20
5.745950
11
120.688326
21
3.751627
0
LINE
8
Layer 1
10
120.688326
20
3.751627
11
124.081374
21
2.258358
0
LINE
8
Layer 1
10
124.081374
20
2.258358
11
127.638510
21
1.278016
0
LINE
8
Layer 1
10
127.638510
20
1.278016
11
131.300036
21
0.822477
0
LINE
8
Layer 1
10
131.300036
20
0.822477
11
135.006253
21
0.903614
0
LINE
8
Layer 1
10
135.006253
20
0.903614
11
138.697462
21
1.533305
0
LINE
8
Layer 1
10
138.697462
20
1.533305
11
142.313963
21
2.723422
0
LINE
8
Layer 1
10
142.313963
20
2.723422
11
145.712756
21
4.439135
0
LINE
8
Layer 1
10
145.712756
20
4.439135
11
148.768093
21
6.603955
0
LINE
8
Layer 1
10
148.768093
20
6.603955
11
151.446158
21
9.167273
0
LINE
8
Layer 1
10
151.446158
20
9.167273
11
153.713132
21
12.078478
0
LINE
8
Layer 1
10
153.713132
20
12.078478
11
155.535201
21
15.286960
0
LINE
8
Layer 1
10
155.535201
20
15.286960
11
156.878547
21
18.742108
0
LINE
8
Layer 1
10
156.878547
20
18.742108
11
157.709354
21
22.393312
0
LINE
8
Layer 1
10
157.709354
20
22.393312
11
157.993804
21
26.189962
0
LINE
8
Layer 1
10
157.993804
20
26.189962
11
157.862667
21
28.786964
0
LINE
8
Layer 1
10
157.862667
20
28.786964
11
157.477767
21
31.308948
0
LINE
8
Layer 1
10
157.477767
20
31.308948
11
156.851871
21
33.743145
0
LINE
8
Layer 1
10
156.851871
20
33.743145
11
155.997746
21
36.076788
0
LINE
8
Layer 1
10
155.997746
20
36.076788
11
154.928161
21
38.297110
0
LINE
8
Layer 1
10
154.928161
20
38.297110
11
153.655883
21
40.391344
0
LINE
8
Layer 1
10
153.655883
20
40.391344
11
152.193679
21
42.346721
0
LINE
8
Layer 1
10
152.193679
20
42.346721
11
150.554317
21
44.150474
0
LINE
8
Layer 1
10
150.554317
20
44.150474
11
148.750563
21
45.789837
0
LINE
8
Layer 1
10
148.750563
20
45.789837
11
146.795186
21
47.252041
0
LINE
8
Layer 1
10
146.795186
20
47.252041
11
144.700953
21
48.524319
0
LINE
8
Layer 1
10
144.700953
20
48.524319
11
142.480631
21
49.593904
0
LINE
8
Layer 1
10
142.480631
20
49.593904
11
140.146987
21
50.448028
0
LINE
8
Layer 1
10
140.146987
20
50.448028
11
137.712790
21
51.073924
0
LINE
8
Layer 1
10
137.712790
20
51.073924
11
135.190807
21
51.458825
0
LINE
8
Layer 1
10
135.190807
20
51.458825
11
132.593804
21
51.589962
0
LINE
8
Layer 1
10
132.593804
20
51.589962
11
132.593804
21
51.589962
 0 
ENDSEC
 0 
EOF