999
"DXF R12 Output" (www.mydxf.blogspot.com)
 0 
SECTION
 2 
HEADER
 9 
$ACADVER
 1 
AC1009
 9 
$EXTMIN
 10 
 0 
 20 
 0 
 9 
$EXTMAX
 10 
 8.5 
 20 
 11 
 0 
ENDSEC
 0 
SECTION
 2 
ENTITIES
0
LINE
8
Layer 1
10
101.396310
20
245.159064
11
97.823872
21
244.891412
0
LINE
8
Layer 1
10
97.823872
20
244.891412
11
94.388290
21
244.109669
0
LINE
8
Layer 1
10
94.388290
20
244.109669
11
91.137186
21
242.845654
0
LINE
8
Layer 1
10
91.137186
20
242.845654
11
88.118181
21
241.131188
0
LINE
8
Layer 1
10
88.118181
20
241.131188
11
85.378898
21
238.998089
0
LINE
8
Layer 1
10
85.378898
20
238.998089
11
82.966957
21
236.478178
0
LINE
8
Layer 1
10
82.966957
20
236.478178
11
80.929980
21
233.603275
0
LINE
8
Layer 1
10
80.929980
20
233.603275
11
79.315589
21
230.405198
0
LINE
8
Layer 1
10
79.315589
20
230.405198
11
78.195754
21
227.002269
0
LINE
8
Layer 1
10
78.195754
20
227.002269
11
77.603251
21
223.529045
0
LINE
8
Layer 1
10
77.603251
20
223.529045
11
77.526904
21
220.041700
0
LINE
8
Layer 1
10
77.526904
20
220.041700
11
77.955542
21
216.596405
0
LINE
8
Layer 1
10
77.955542
20
216.596405
11
78.877989
21
213.249336
0
LINE
8
Layer 1
10
78.877989
20
213.249336
11
80.283074
21
210.056665
0
LINE
8
Layer 1
10
80.283074
20
210.056665
11
82.159621
21
207.074566
0
LINE
8
Layer 1
10
82.159621
20
207.074566
11
84.496458
21
204.359212
0
LINE
8
Layer 1
10
84.496458
20
204.359212
11
87.211812
21
202.022375
0
LINE
8
Layer 1
10
87.211812
20
202.022375
11
90.193911
21
200.145828
0
LINE
8
Layer 1
10
90.193911
20
200.145828
11
93.386582
21
198.740743
0
LINE
8
Layer 1
10
93.386582
20
198.740743
11
96.733651
21
197.818296
0
LINE
8
Layer 1
10
96.733651
20
197.818296
11
100.178946
21
197.389658
0
LINE
8
Layer 1
10
100.178946
20
197.389658
11
103.666291
21
197.466005
0
LINE
8
Layer 1
10
103.666291
20
197.466005
11
107.139515
21
198.058508
0
LINE
8
Layer 1
10
107.139515
20
198.058508
11
110.542444
21
199.178343
0
LINE
8
Layer 1
10
110.542444
20
199.178343
11
113.740521
21
200.792734
0
LINE
8
Layer 1
10
113.740521
20
200.792734
11
116.615424
21
202.829711
0
LINE
8
Layer 1
10
116.615424
20
202.829711
11
119.135335
21
205.241652
0
LINE
8
Layer 1
10
119.135335
20
205.241652
11
121.268434
21
207.980935
0
LINE
8
Layer 1
10
121.268434
20
207.980935
11
122.982900
21
210.999940
0
LINE
8
Layer 1
10
122.982900
20
210.999940
11
124.246915
21
214.251044
0
LINE
8
Layer 1
10
124.246915
20
214.251044
11
125.028658
21
217.686626
0
LINE
8
Layer 1
10
125.028658
20
217.686626
11
125.296310
21
221.259064
0
LINE
8
Layer 1
10
125.296310
20
221.259064
11
125.179359
21
223.621285
0
LINE
8
Layer 1
10
125.179359
20
223.621285
11
124.832835
21
225.943496
0
LINE
8
Layer 1
10
124.832835
20
225.943496
11
124.263228
21
228.210024
0
LINE
8
Layer 1
10
124.263228
20
228.210024
11
123.477031
21
230.405198
0
LINE
8
Layer 1
10
123.477031
20
230.405198
11
122.480734
21
232.513346
0
LINE
8
Layer 1
10
122.480734
20
232.513346
11
121.280829
21
234.518796
0
LINE
8
Layer 1
10
121.280829
20
234.518796
11
119.883808
21
236.405877
0
LINE
8
Layer 1
10
119.883808
20
236.405877
11
118.296162
21
238.158916
0
LINE
8
Layer 1
10
118.296162
20
238.158916
11
116.543123
21
239.746562
0
LINE
8
Layer 1
10
116.543123
20
239.746562
11
114.656042
21
241.143583
0
LINE
8
Layer 1
10
114.656042
20
241.143583
11
112.650592
21
242.343488
0
LINE
8
Layer 1
10
112.650592
20
242.343488
11
110.542444
21
243.339785
0
LINE
8
Layer 1
10
110.542444
20
243.339785
11
108.347270
21
244.125982
0
LINE
8
Layer 1
10
108.347270
20
244.125982
11
106.080742
21
244.695589
0
LINE
8
Layer 1
10
106.080742
20
244.695589
11
103.758531
21
245.042113
0
LINE
8
Layer 1
10
103.758531
20
245.042113
11
101.396310
21
245.159064
0
LINE
8
Layer 1
10
101.396310
20
245.159064
11
101.396310
21
245.159064
0
LINE
8
Layer 1
10
101.396310
20
223.259064
11
100.809865
21
223.171248
0
LINE
8
Layer 1
10
100.809865
20
223.171248
11
100.285170
21
222.922003
0
LINE
8
Layer 1
10
100.285170
20
222.922003
11
99.854105
21
222.532630
0
LINE
8
Layer 1
10
99.854105
20
222.532630
11
99.548551
21
222.024431
0
LINE
8
Layer 1
10
99.548551
20
222.024431
11
99.405259
21
221.449021
0
LINE
8
Layer 1
10
99.405259
20
221.449021
11
99.434739
21
220.868883
0
LINE
8
Layer 1
10
99.434739
20
220.868883
11
99.629512
21
220.321625
0
LINE
8
Layer 1
10
99.629512
20
220.321625
11
99.982096
21
219.844850
0
LINE
8
Layer 1
10
99.982096
20
219.844850
11
100.458871
21
219.492266
0
LINE
8
Layer 1
10
100.458871
20
219.492266
11
101.006129
21
219.297493
0
LINE
8
Layer 1
10
101.006129
20
219.297493
11
101.586267
21
219.268013
0
LINE
8
Layer 1
10
101.586267
20
219.268013
11
102.161677
21
219.411305
0
LINE
8
Layer 1
10
102.161677
20
219.411305
11
102.669876
21
219.716859
0
LINE
8
Layer 1
10
102.669876
20
219.716859
11
103.059249
21
220.147924
0
LINE
8
Layer 1
10
103.059249
20
220.147924
11
103.308494
21
220.672619
0
LINE
8
Layer 1
10
103.308494
20
220.672619
11
103.396310
21
221.259064
0
LINE
8
Layer 1
10
103.396310
20
221.259064
11
103.244069
21
222.024431
0
LINE
8
Layer 1
10
103.244069
20
222.024431
11
102.810524
21
222.673278
0
LINE
8
Layer 1
10
102.810524
20
222.673278
11
102.161677
21
223.106823
0
LINE
8
Layer 1
10
102.161677
20
223.106823
11
101.396310
21
223.259064
0
LINE
8
Layer 1
10
101.396310
20
223.259064
11
101.396310
21
223.259064
0
LINE
8
Layer 1
10
159.147890
20
246.659064
11
155.351240
21
246.374614
0
LINE
8
Layer 1
10
155.351240
20
246.374614
11
151.700036
21
245.543807
0
LINE
8
Layer 1
10
151.700036
20
245.543807
11
148.244888
21
244.200461
0
LINE
8
Layer 1
10
148.244888
20
244.200461
11
145.036406
21
242.378392
0
LINE
8
Layer 1
10
145.036406
20
242.378392
11
142.125201
21
240.111417
0
LINE
8
Layer 1
10
142.125201
20
240.111417
11
139.561883
21
237.433353
0
LINE
8
Layer 1
10
139.561883
20
237.433353
11
137.397063
21
234.378016
0
LINE
8
Layer 1
10
137.397063
20
234.378016
11
135.681350
21
230.979223
0
LINE
8
Layer 1
10
135.681350
20
230.979223
11
134.491233
21
227.362721
0
LINE
8
Layer 1
10
134.491233
20
227.362721
11
133.861542
21
223.671513
0
LINE
8
Layer 1
10
133.861542
20
223.671513
11
133.780405
21
219.965296
0
LINE
8
Layer 1
10
133.780405
20
219.965296
11
134.235944
21
216.303770
0
LINE
8
Layer 1
10
134.235944
20
216.303770
11
135.216286
21
212.746633
0
LINE
8
Layer 1
10
135.216286
20
212.746633
11
136.709555
21
209.353586
0
LINE
8
Layer 1
10
136.709555
20
209.353586
11
138.703878
21
206.184326
0
LINE
8
Layer 1
10
138.703878
20
206.184326
11
141.187378
21
203.298552
0
LINE
8
Layer 1
10
141.187378
20
203.298552
11
144.073152
21
200.815052
0
LINE
8
Layer 1
10
144.073152
20
200.815052
11
147.242412
21
198.820729
0
LINE
8
Layer 1
10
147.242412
20
198.820729
11
150.635459
21
197.327460
0
LINE
8
Layer 1
10
150.635459
20
197.327460
11
154.192596
21
196.347118
0
LINE
8
Layer 1
10
154.192596
20
196.347118
11
157.854122
21
195.891579
0
LINE
8
Layer 1
10
157.854122
20
195.891579
11
161.560339
21
195.972716
0
LINE
8
Layer 1
10
161.560339
20
195.972716
11
165.251547
21
196.602407
0
LINE
8
Layer 1
10
165.251547
20
196.602407
11
168.868049
21
197.792524
0
LINE
8
Layer 1
10
168.868049
20
197.792524
11
172.266842
21
199.508237
0
LINE
8
Layer 1
10
172.266842
20
199.508237
11
175.322179
21
201.673057
0
LINE
8
Layer 1
10
175.322179
20
201.673057
11
178.000243
21
204.236375
0
LINE
8
Layer 1
10
178.000243
20
204.236375
11
180.267218
21
207.147580
0
LINE
8
Layer 1
10
180.267218
20
207.147580
11
182.089287
21
210.356062
0
LINE
8
Layer 1
10
182.089287
20
210.356062
11
183.432633
21
213.811210
0
LINE
8
Layer 1
10
183.432633
20
213.811210
11
184.263440
21
217.462414
0
LINE
8
Layer 1
10
184.263440
20
217.462414
11
184.547890
21
221.259064
0
LINE
8
Layer 1
10
184.547890
20
221.259064
11
184.416753
21
223.856066
0
LINE
8
Layer 1
10
184.416753
20
223.856066
11
184.031852
21
226.378050
0
LINE
8
Layer 1
10
184.031852
20
226.378050
11
183.405956
21
228.812247
0
LINE
8
Layer 1
10
183.405956
20
228.812247
11
182.551832
21
231.145890
0
LINE
8
Layer 1
10
182.551832
20
231.145890
11
181.482247
21
233.366212
0
LINE
8
Layer 1
10
181.482247
20
233.366212
11
180.209969
21
235.460446
0
LINE
8
Layer 1
10
180.209969
20
235.460446
11
178.747765
21
237.415823
0
LINE
8
Layer 1
10
178.747765
20
237.415823
11
177.108402
21
239.219576
0
LINE
8
Layer 1
10
177.108402
20
239.219576
11
175.304649
21
240.858939
0
LINE
8
Layer 1
10
175.304649
20
240.858939
11
173.349272
21
242.321143
0
LINE
8
Layer 1
10
173.349272
20
242.321143
11
171.255038
21
243.593421
0
LINE
8
Layer 1
10
171.255038
20
243.593421
11
169.034716
21
244.663006
0
LINE
8
Layer 1
10
169.034716
20
244.663006
11
166.701073
21
245.517130
0
LINE
8
Layer 1
10
166.701073
20
245.517130
11
164.266876
21
246.143026
0
LINE
8
Layer 1
10
164.266876
20
246.143026
11
161.744892
21
246.527927
0
LINE
8
Layer 1
10
161.744892
20
246.527927
11
159.147890
21
246.659064
0
LINE
8
Layer 1
10
159.147890
20
246.659064
11
159.147890
21
246.659064
0
LINE
8
Layer 1
10
159.147890
20
223.259064
11
158.561445
21
223.171248
0
LINE
8
Layer 1
10
158.561445
20
223.171248
11
158.036750
21
222.922003
0
LINE
8
Layer 1
10
158.036750
20
222.922003
11
157.605685
21
222.532630
0
LINE
8
Layer 1
10
157.605685
20
222.532630
11
157.300131
21
222.024431
0
LINE
8
Layer 1
10
157.300131
20
222.024431
11
157.156839
21
221.449021
0
LINE
8
Layer 1
10
157.156839
20
221.449021
11
157.186319
21
220.868883
0
LINE
8
Layer 1
10
157.186319
20
220.868883
11
157.381092
21
220.321625
0
LINE
8
Layer 1
10
157.381092
20
220.321625
11
157.733676
21
219.844850
0
LINE
8
Layer 1
10
157.733676
20
219.844850
11
158.210451
21
219.492266
0
LINE
8
Layer 1
10
158.210451
20
219.492266
11
158.757709
21
219.297493
0
LINE
8
Layer 1
10
158.757709
20
219.297493
11
159.337847
21
219.268013
0
LINE
8
Layer 1
10
159.337847
20
219.268013
11
159.913257
21
219.411305
0
LINE
8
Layer 1
10
159.913257
20
219.411305
11
160.421456
21
219.716859
0
LINE
8
Layer 1
10
160.421456
20
219.716859
11
160.810829
21
220.147924
0
LINE
8
Layer 1
10
160.810829
20
220.147924
11
161.060074
21
220.672619
0
LINE
8
Layer 1
10
161.060074
20
220.672619
11
161.147890
21
221.259064
0
LINE
8
Layer 1
10
161.147890
20
221.259064
11
160.995649
21
222.024431
0
LINE
8
Layer 1
10
160.995649
20
222.024431
11
160.562104
21
222.673278
0
LINE
8
Layer 1
10
160.562104
20
222.673278
11
159.913257
21
223.106823
0
LINE
8
Layer 1
10
159.913257
20
223.106823
11
159.147890
21
223.259064
0
LINE
8
Layer 1
10
159.147890
20
223.259064
11
159.147890
21
223.259064
 0 
ENDSEC
 0 
EOF