  0
SECTION
  2
HEADER
  9
$ACADVER
  1
AC1014
  9
$HANDSEED
  5
FFFF
  9
$INSUNITS
 70
     0
  9
$MEASUREMENT
 70
     1
  0
ENDSEC
  0
SECTION
  2
TABLES
  0
TABLE
  2
VPORT
  5
8
330
0
100
AcDbSymbolTable
 70
     4
  0
VPORT
  5
2E
330
8
100
AcDbSymbolTableRecord
100
AcDbViewportTableRecord
  2
*ACTIVE
 70
     0
 10
0.0
 20
0.0
 11
1.0
 21
1.0
 12
210.0
 22
148.5
 13
0.0
 23
0.0
 14
10.0
 24
10.0
 15
10.0
 25
10.0
 16
0.0
 26
0.0
 36
1.0
 17
0.0
 27
0.0
 37
0.0
 40
341.0
 41
1.24
 42
50.0
 43
0.0
 44
0.0
 50
0.0
 51
0.0
 71
     0
 72
   100
 73
     1
 74
     3
 75
     0
 76
     0
 77
     0
 78
     0
  0
ENDTAB
  0
TABLE
  2
LTYPE
  5
5
330
0
100
AcDbSymbolTable
 70
     1
  0
LTYPE
  5
14
330
5
100
AcDbSymbolTableRecord
100
AcDbLinetypeTableRecord
  2
BYBLOCK
 70
     0
  3

 72
    65
 73
     0
 40
0.0
  0
LTYPE
  5
15
330
5
100
AcDbSymbolTableRecord
100
AcDbLinetypeTableRecord
  2
BYLAYER
 70
     0
  3

 72
    65
 73
     0
 40
0.0
  0
LTYPE
  5
16
330
5
100
AcDbSymbolTableRecord
100
AcDbLinetypeTableRecord
  2
CONTINUOUS
 70
     0
  3
Solid line
 72
    65
 73
     0
 40
0.0
  0
ENDTAB
  0
TABLE
  2
LAYER
  5
2
100
AcDbSymbolTable
 70
2
  0
LAYER
  5
50
100
AcDbSymbolTableRecord
100
AcDbLayerTableRecord
  2
0
 70
0
  6
CONTINUOUS
  0
LAYER
  5
51
100
AcDbSymbolTableRecord
100
AcDbLayerTableRecord
  2
Layer_1
 70
0
  6
CONTINUOUS
  0
ENDTAB
  0
TABLE
  2
STYLE
  5
3
330
0
100
AcDbSymbolTable
 70
     1
  0
STYLE
  5
11
330
3
100
AcDbSymbolTableRecord
100
AcDbTextStyleTableRecord
  2
STANDARD
 70
     0
 40
0.0
 41
1.0
 50
0.0
 71
     0
 42
2.5
  3
txt
  4

  0
ENDTAB
  0
TABLE
  2
VIEW
  5
6
330
0
100
AcDbSymbolTable
 70
     0
  0
ENDTAB
  0
TABLE
  2
UCS
  5
7
330
0
100
AcDbSymbolTable
 70
     0
  0
ENDTAB
  0
TABLE
  2
APPID
  5
9
330
0
100
AcDbSymbolTable
 70
     2
  0
APPID
  5
12
330
9
100
AcDbSymbolTableRecord
100
AcDbRegAppTableRecord
  2
ACAD
 70
     0
  0
ENDTAB
  0
TABLE
  2
DIMSTYLE
  5
A
330
0
100
AcDbSymbolTable
 70
     1
  0
DIMSTYLE
105
27
330
A
100
AcDbSymbolTableRecord
100
AcDbDimStyleTableRecord
  2
ISO-25
 70
     0
  3

  4

  5

  6

  7

 40
1.0
 41
2.5
 42
0.625
 43
3.75
 44
1.25
 45
0.0
 46
0.0
 47
0.0
 48
0.0
140
2.5
141
2.5
142
0.0
143
0.03937007874016
144
1.0
145
0.0
146
1.0
147
0.625
 71
     0
 72
     0
 73
     0
 74
     0
 75
     0
 76
     0
 77
     1
 78
     8
170
     0
171
     3
172
     1
173
     0
174
     0
175
     0
176
     0
177
     0
178
     0
270
     2
271
     2
272
     2
273
     2
274
     3
340
11
275
     0
280
     0
281
     0
282
     0
283
     0
284
     8
285
     0
286
     0
287
     3
288
     0
  0
ENDTAB
  0
TABLE
  2
BLOCK_RECORD
  5
1
330
0
100
AcDbSymbolTable
 70
     1
  0
BLOCK_RECORD
  5
1F
330
1
100
AcDbSymbolTableRecord
100
AcDbBlockTableRecord
  2
*MODEL_SPACE
  0
BLOCK_RECORD
  5
1B
330
1
100
AcDbSymbolTableRecord
100
AcDbBlockTableRecord
  2
*PAPER_SPACE
  0
ENDTAB
  0
ENDSEC
  0
SECTION
  2
BLOCKS
  0
BLOCK
  5
20
330
1F
100
AcDbEntity
  8
0
100
AcDbBlockBegin
  2
*MODEL_SPACE
 70
     0
 10
0.0
 20
0.0
 30
0.0
  3
*MODEL_SPACE
  1

  0
ENDBLK
  5
21
330
1F
100
AcDbEntity
  8
0
100
AcDbBlockEnd
  0
BLOCK
  5
1C
330
1B
100
AcDbEntity
 67
     1
  8
0
100
AcDbBlockBegin
  2
*PAPER_SPACE
  1

  0
ENDBLK
  5
1D
330
1B
100
AcDbEntity
 67
     1
  8
0
100
AcDbBlockEnd
  0
ENDSEC
  0
SECTION
  2
ENTITIES
  0
LINE
  5
100
100
AcDbEntity
  8
Layer_1
 62
7
100
AcDbLine
 10
5.654087
 20
294.220957
 30
0.0
 11
8.654087
 21
294.220957
 31
0.0
  0
LINE
  5
101
100
AcDbEntity
  8
Layer_1
 62
7
100
AcDbLine
 10
8.654087
 20
294.220957
 30
0.0
 11
8.654087
 21
216.220957
 31
0.0
  0
LINE
  5
102
100
AcDbEntity
  8
Layer_1
 62
7
100
AcDbLine
 10
8.654087
 20
216.220957
 30
0.0
 11
5.654087
 21
216.220957
 31
0.0
  0
LINE
  5
103
100
AcDbEntity
  8
Layer_1
 62
7
100
AcDbLine
 10
5.654087
 20
216.220957
 30
0.0
 11
5.654087
 21
294.220957
 31
0.0
  0
LINE
  5
104
100
AcDbEntity
  8
Layer_1
 62
7
100
AcDbLine
 10
22.582190
 20
294.220957
 30
0.0
 11
25.582190
 21
294.220957
 31
0.0
  0
LINE
  5
105
100
AcDbEntity
  8
Layer_1
 62
7
100
AcDbLine
 10
25.582190
 20
294.220957
 30
0.0
 11
25.582190
 21
216.220957
 31
0.0
  0
LINE
  5
106
100
AcDbEntity
  8
Layer_1
 62
7
100
AcDbLine
 10
25.582190
 20
216.220957
 30
0.0
 11
22.582190
 21
216.220957
 31
0.0
  0
LINE
  5
107
100
AcDbEntity
  8
Layer_1
 62
7
100
AcDbLine
 10
22.582190
 20
216.220957
 30
0.0
 11
22.582190
 21
294.220957
 31
0.0
  0
LINE
  5
108
100
AcDbEntity
  8
Layer_1
 62
7
100
AcDbLine
 10
11.296788
 20
294.220957
 30
0.0
 11
14.296788
 21
294.220957
 31
0.0
  0
LINE
  5
109
100
AcDbEntity
  8
Layer_1
 62
7
100
AcDbLine
 10
14.296788
 20
294.220957
 30
0.0
 11
14.296788
 21
216.220957
 31
0.0
  0
LINE
  5
10a
100
AcDbEntity
  8
Layer_1
 62
7
100
AcDbLine
 10
14.296788
 20
216.220957
 30
0.0
 11
11.296788
 21
216.220957
 31
0.0
  0
LINE
  5
10b
100
AcDbEntity
  8
Layer_1
 62
7
100
AcDbLine
 10
11.296788
 20
216.220957
 30
0.0
 11
11.296788
 21
294.220957
 31
0.0
  0
LINE
  5
10c
100
AcDbEntity
  8
Layer_1
 62
7
100
AcDbLine
 10
16.939489
 20
294.220957
 30
0.0
 11
19.939489
 21
294.220957
 31
0.0
  0
LINE
  5
10d
100
AcDbEntity
  8
Layer_1
 62
7
100
AcDbLine
 10
19.939489
 20
294.220957
 30
0.0
 11
19.939489
 21
216.220957
 31
0.0
  0
LINE
  5
10e
100
AcDbEntity
  8
Layer_1
 62
7
100
AcDbLine
 10
19.939489
 20
216.220957
 30
0.0
 11
16.939489
 21
216.220957
 31
0.0
  0
LINE
  5
10f
100
AcDbEntity
  8
Layer_1
 62
7
100
AcDbLine
 10
16.939489
 20
216.220957
 30
0.0
 11
16.939489
 21
294.220957
 31
0.0
  0
LINE
  5
110
100
AcDbEntity
  8
Layer_1
 62
7
100
AcDbLine
 10
69.272603
 20
294.361571
 30
0.0
 11
72.558703
 21
294.361571
 31
0.0
  0
LINE
  5
111
100
AcDbEntity
  8
Layer_1
 62
7
100
AcDbLine
 10
72.558703
 20
294.361571
 30
0.0
 11
72.558703
 21
291.433112
 31
0.0
  0
LINE
  5
112
100
AcDbEntity
  8
Layer_1
 62
7
100
AcDbLine
 10
72.558703
 20
291.433112
 30
0.0
 11
69.272603
 21
291.433112
 31
0.0
  0
LINE
  5
113
100
AcDbEntity
  8
Layer_1
 62
7
100
AcDbLine
 10
69.272603
 20
291.433112
 30
0.0
 11
69.272603
 21
294.361571
 31
0.0
  0
LINE
  5
114
100
AcDbEntity
  8
Layer_1
 62
7
100
AcDbLine
 10
69.272603
 20
216.855429
 30
0.0
 11
72.558703
 21
216.855429
 31
0.0
  0
LINE
  5
115
100
AcDbEntity
  8
Layer_1
 62
7
100
AcDbLine
 10
72.558703
 20
216.855429
 30
0.0
 11
72.558703
 21
213.926970
 31
0.0
  0
LINE
  5
116
100
AcDbEntity
  8
Layer_1
 62
7
100
AcDbLine
 10
72.558703
 20
213.926970
 30
0.0
 11
69.272603
 21
213.926970
 31
0.0
  0
LINE
  5
117
100
AcDbEntity
  8
Layer_1
 62
7
100
AcDbLine
 10
69.272603
 20
213.926970
 30
0.0
 11
69.272603
 21
216.855429
 31
0.0
  0
LINE
  5
118
100
AcDbEntity
  8
Layer_1
 62
7
100
AcDbLine
 10
70.915650
 20
281.044271
 30
0.0
 11
70.915650
 21
281.044271
 31
0.0
  0
SPLINE
  5
119
100
AcDbEntity
  8
Layer_1
 62
7
100
AcDbSpline
 70
0
 71
3
 72
25
 73
21
 74
19
 40
0.000000
 40
0.000000
 40
0.000000
 40
0.000000
 40
10.558719
 40
20.929415
 40
31.488134
 40
42.046853
 40
52.417549
 40
62.976268
 40
73.534986
 40
83.905683
 40
94.464402
 40
105.023120
 40
115.393817
 40
125.952536
 40
132.994280
 40
139.977751
 40
147.019495
 40
154.061240
 40
161.044711
 40
168.086455
 40
168.086455
 40
168.086455
 40
168.086455
 10
70.915650
 20
281.044271
 30
0.0
 10
67.373352
 20
280.635522
 30
0.0
 10
60.351834
 20
279.825302
 30
0.0
 10
51.403961
 20
273.609993
 30
0.0
 10
45.408424
 20
264.723345
 30
0.0
 10
43.318766
 20
254.137504
 30
0.0
 10
45.418234
 20
243.587316
 30
0.0
 10
51.393263
 20
234.621628
 30
0.0
 10
60.357731
 20
228.646906
 30
0.0
 10
70.912441
 20
226.547434
 30
0.0
 10
81.481167
 20
228.636801
 30
0.0
 10
90.431560
 20
234.633502
 30
0.0
 10
96.411689
 20
243.577059
 30
0.0
 10
98.284896
 20
252.975492
 30
0.0
 10
97.195972
 20
261.185581
 30
0.0
 10
94.479100
 20
267.746847
 30
0.0
 10
90.156516
 20
273.391054
 30
0.0
 10
84.519407
 20
277.685330
 30
0.0
 10
77.958087
 20
280.507782
 30
0.0
 10
73.269622
 20
280.864947
 30
0.0
 10
70.915650
 20
281.044271
 30
0.0
 11
70.915650
 21
281.044271
 31
0.0
 11
60.562121
 21
278.972802
 31
0.0
 11
51.939202
 21
273.211152
 31
0.0
 11
46.063291
 21
264.438455
 31
0.0
 11
44.014954
 21
254.080325
 31
0.0
 11
46.038177
 21
243.908899
 31
0.0
 11
51.894478
 21
235.123099
 31
0.0
 11
60.680278
 21
229.266798
 31
0.0
 11
70.851704
 21
227.243576
 31
0.0
 11
81.209834
 21
229.291912
 31
0.0
 11
89.982531
 21
235.167823
 31
0.0
 11
95.744181
 21
243.790742
 31
0.0
 11
97.815650
 21
254.144271
 31
0.0
 11
96.894042
 21
261.125446
 31
0.0
 11
94.221583
 21
267.577332
 31
0.0
 11
89.936822
 21
273.165444
 31
0.0
 11
84.348711
 21
277.450204
 31
0.0
 11
77.896825
 21
280.122663
 31
0.0
 11
70.915650
 21
281.044271
 31
0.0
  0
LINE
  5
11a
100
AcDbEntity
  8
Layer_1
 62
7
100
AcDbLine
 10
70.915650
 20
294.144271
 30
0.0
 11
70.915650
 21
294.144271
 31
0.0
  0
LINE
  5
11b
100
AcDbEntity
  8
Layer_1
 62
7
100
AcDbLine
 10
111.132952
 20
255.871327
 30
0.0
 11
111.132952
 21
252.585227
 31
0.0
  0
LINE
  5
11c
100
AcDbEntity
  8
Layer_1
 62
7
100
AcDbLine
 10
111.132952
 20
252.585227
 30
0.0
 11
108.204493
 21
252.585227
 31
0.0
  0
LINE
  5
11d
100
AcDbEntity
  8
Layer_1
 62
7
100
AcDbLine
 10
108.204493
 20
252.585227
 30
0.0
 11
108.204493
 21
255.871327
 31
0.0
  0
LINE
  5
11e
100
AcDbEntity
  8
Layer_1
 62
7
100
AcDbLine
 10
108.204493
 20
255.871327
 30
0.0
 11
111.132952
 21
255.871327
 31
0.0
  0
LINE
  5
11f
100
AcDbEntity
  8
Layer_1
 62
7
100
AcDbLine
 10
33.626806
 20
255.871327
 30
0.0
 11
33.626806
 21
252.585227
 31
0.0
  0
LINE
  5
120
100
AcDbEntity
  8
Layer_1
 62
7
100
AcDbLine
 10
33.626806
 20
252.585227
 30
0.0
 11
30.698347
 21
252.585227
 31
0.0
  0
LINE
  5
121
100
AcDbEntity
  8
Layer_1
 62
7
100
AcDbLine
 10
30.698347
 20
252.585227
 30
0.0
 11
30.698347
 21
255.871327
 31
0.0
  0
LINE
  5
122
100
AcDbEntity
  8
Layer_1
 62
7
100
AcDbLine
 10
30.698347
 20
255.871327
 30
0.0
 11
33.626806
 21
255.871327
 31
0.0
  0
SPLINE
  5
123
100
AcDbEntity
  8
Layer_1
 62
7
100
AcDbSpline
 70
0
 71
3
 72
25
 73
21
 74
19
 40
0.000000
 40
0.000000
 40
0.000000
 40
0.000000
 40
15.700697
 40
31.121807
 40
46.822504
 40
62.523201
 40
77.944311
 40
93.645008
 40
109.345705
 40
124.766815
 40
140.467512
 40
156.168209
 40
171.589319
 40
187.290016
 40
197.761011
 40
208.145355
 40
218.616350
 40
229.087345
 40
239.471689
 40
249.942685
 40
249.942685
 40
249.942685
 40
249.942685
 10
70.915650
 20
294.144271
 30
0.0
 10
65.648292
 20
293.536466
 30
0.0
 10
55.207374
 20
292.331678
 30
0.0
 10
41.901985
 20
283.089583
 30
0.0
 10
32.986689
 20
269.875237
 30
0.0
 10
29.879391
 20
254.134209
 30
0.0
 10
33.001277
 20
238.446197
 30
0.0
 10
41.886078
 20
225.114318
 30
0.0
 10
55.216142
 20
216.229973
 30
0.0
 10
70.910879
 20
213.108082
 30
0.0
 10
86.626456
 20
216.214947
 30
0.0
 10
99.935590
 20
225.131975
 30
0.0
 10
108.827975
 20
238.430945
 30
0.0
 10
111.613414
 20
252.406310
 30
0.0
 10
109.994196
 20
264.614620
 30
0.0
 10
105.954238
 20
274.371150
 30
0.0
 10
99.526603
 20
282.764023
 30
0.0
 10
91.144284
 20
289.149564
 30
0.0
 10
81.387675
 20
293.346517
 30
0.0
 10
74.415981
 20
293.877618
 30
0.0
 10
70.915650
 20
294.144271
 30
0.0
 11
70.915650
 21
294.144271
 31
0.0
 11
55.520068
 21
291.064020
 31
0.0
 11
42.697884
 21
282.496510
 31
0.0
 11
33.960469
 21
269.451608
 31
0.0
 11
30.914616
 21
254.049184
 31
0.0
 11
33.923125
 21
238.924387
 31
0.0
 11
42.631379
 21
225.860000
 31
0.0
 11
55.695766
 21
217.151746
 31
0.0
 11
70.820563
 21
214.143237
 31
0.0
 11
86.222987
 21
217.189090
 31
0.0
 11
99.267889
 21
225.926505
 31
0.0
 11
107.835399
 21
238.748689
 31
0.0
 11
110.915650
 21
254.144271
 31
0.0
 11
109.545229
 21
264.525200
 31
0.0
 11
105.571312
 21
274.119083
 31
0.0
 11
99.199921
 21
282.428542
 31
0.0
 11
90.890462
 21
288.799934
 31
0.0
 11
81.296579
 21
292.773850
 31
0.0
 11
70.915650
 21
294.144271
 31
0.0
  0
ENDSEC
  0
SECTION
  2
OBJECTS
  0
DICTIONARY
  5
C
330
0
100
AcDbDictionary
  3
ACAD_GROUP
350
D
  3
ACAD_MLINESTYLE
350
17
  0
DICTIONARY
  5
D
330
C
100
AcDbDictionary
  0
DICTIONARY
  5
1A
330
C
100
AcDbDictionary
  0
DICTIONARY
  5
17
330
C
100
AcDbDictionary
  3
STANDARD
350
18
  0
DICTIONARY
  5
19
330
C
100
AcDbDictionary
  0
ENDSEC
  0
EOF
